HIERARCHY
ROOT Bip01_Pelvis
{
	OFFSET 0.000000 0.594324 0.000000
	CHANNELS 6 Xposition Yposition Zposition Zrotation Yrotation Xrotation 
	JOINT Bip01_Spine
	{
		OFFSET 0.009608 0.007105 0.185793
		CHANNELS 3 Zrotation Yrotation Xrotation
		JOINT Bip01_R_Thigh
		{
			OFFSET -0.196334 0.019009 -0.192703
			CHANNELS 3 Zrotation Yrotation Xrotation
			JOINT Bip01_R_Calf
			{
				OFFSET -0.014650 -0.312868 -0.030736
				CHANNELS 3 Zrotation Yrotation Xrotation
				JOINT Bip01_R_Foot
				{
					OFFSET -0.013986 -0.234582 -0.078269
					CHANNELS 3 Zrotation Yrotation Xrotation
					JOINT Bip01_R_Toe0
					{
						OFFSET -0.005548 -0.066783 0.153622
						CHANNELS 3 Zrotation Yrotation Xrotation
						End Site #name: Bip01_R_Toe0Nub
						{
							OFFSET -0.006574 -0.003324 0.147113
						}
					}
				}
			}
		}
		JOINT Bip01_L_Thigh
		{
			OFFSET 0.159836 0.016130 -0.176189
			CHANNELS 3 Zrotation Yrotation Xrotation
			JOINT Bip01_L_Calf
			{
				OFFSET 0.011399 -0.312868 -0.032084
				CHANNELS 3 Zrotation Yrotation Xrotation
				JOINT Bip01_L_Foot
				{
					OFFSET 0.005836 -0.234583 -0.079294
					CHANNELS 3 Zrotation Yrotation Xrotation
					JOINT Bip01_L_Toe0
					{
						OFFSET 0.021365 -0.066784 0.152231
						CHANNELS 3 Zrotation Yrotation Xrotation
						End Site #name: Bip01_L_Toe0Nub
						{
							OFFSET 0.021714 -0.003324 0.145650
						}
					}
				}
			}
		}
		JOINT Bip01_Spine1
		{
			OFFSET 0.024988 0.035917 0.256035
			CHANNELS 3 Zrotation Yrotation Xrotation
			JOINT Bip01_Neck
			{
				OFFSET 0.017372 0.108008 0.335926
				CHANNELS 3 Zrotation Yrotation Xrotation
				JOINT Bip01_R_Clavicle
				{
					OFFSET 0.082771 0.085319 -0.131431
					CHANNELS 3 Zrotation Yrotation Xrotation
					JOINT Bip01_R_UpperArm
					{
						OFFSET -0.310444 -0.051678 0.043061
						CHANNELS 3 Zrotation Yrotation Xrotation
						JOINT Bip01_R_Forearm
						{
							OFFSET 0.015772 -0.429548 -0.042549
							CHANNELS 3 Zrotation Yrotation Xrotation
							JOINT Bip01_R_Hand
							{
								OFFSET 0.009541 -0.283246 -0.000864
								CHANNELS 3 Zrotation Yrotation Xrotation
								JOINT Bip01_R_Finger1
								{
									OFFSET -0.019044 -0.031978 0.180618
									CHANNELS 3 Zrotation Yrotation Xrotation
									End Site #name: Bip01_R_Finger1Nub
									{
										OFFSET 0.002759 -0.001752 0.059654
									}
								}
								JOINT Bip01_R_Finger0
								{
									OFFSET 0.061029 -0.032053 0.177878
									CHANNELS 3 Zrotation Yrotation Xrotation
									End Site #name: Bip01_R_Finger0Nub
									{
										OFFSET 0.002206 0.000489 0.059499
									}
								}
							}
						}
					}
				}
				JOINT Bip01_L_Clavicle
				{
					OFFSET -0.100731 0.088760 -0.115693
					CHANNELS 3 Zrotation Yrotation Xrotation
					JOINT Bip01_L_UpperArm
					{
						OFFSET 0.313230 -0.051678 0.010809
						CHANNELS 3 Zrotation Yrotation Xrotation
						JOINT Bip01_L_Forearm
						{
							OFFSET -0.020078 -0.429548 -0.040694
							CHANNELS 3 Zrotation Yrotation Xrotation
							JOINT Bip01_L_Hand
							{
								OFFSET -0.009580 -0.283246 0.000125
								CHANNELS 3 Zrotation Yrotation Xrotation
								JOINT Bip01_L_Finger1
								{
									OFFSET 0.037573 -0.031987 0.177688
									CHANNELS 3 Zrotation Yrotation Xrotation
									End Site #name: Bip01_L_Finger1Nub
									{
										OFFSET 0.003409 -0.001751 0.059621
									}
								}
								JOINT Bip01_L_Finger0
								{
									OFFSET -0.042355 -0.032043 0.183226
									CHANNELS 3 Zrotation Yrotation Xrotation
									End Site #name: Bip01_L_Finger0Nub
									{
										OFFSET 0.003943 0.000489 0.059409
									}
								}
							}
						}
					}
				}
				JOINT Bip01_Neck1
				{
					OFFSET 0.002323 -0.021765 0.185681
					CHANNELS 3 Zrotation Yrotation Xrotation
					JOINT Bip01_Head
					{
						OFFSET 0.008898 -0.016415 0.172066
						CHANNELS 3 Zrotation Yrotation Xrotation
						JOINT BN_Mouth_01
						{
							OFFSET 0.004821 -0.160797 0.093227
							CHANNELS 3 Zrotation Yrotation Xrotation
							JOINT BN_Tongue_01
							{
								OFFSET 0.002996 0.005104 0.057938
								CHANNELS 3 Zrotation Yrotation Xrotation
								End Site #name: BN_Tongue_02
								{
									OFFSET 0.002142 -0.038653 0.041421
								}
							}
						}
						End Site #name: BN_Ear_L_01
						{
							OFFSET 0.117212 0.086168 0.071071
						}
						End Site #name: BN_Ear_R_01
						{
							OFFSET -0.109259 0.086168 0.082782
						}
						End Site #name: Bip01_HeadNub
						{
							OFFSET 0.013998 -0.065380 0.270682
						}
					}
				}
			}
		}
	}
}
MOTION
Frames: 7
Frame Time: 0.041667
0.058924 0.508021 0.086941 -178.486858 -18.473979 -18.989020 171.154519 -28.312483 8.702718 1.765532 9.599114 -57.134450 17.071710 -16.176932 48.375766 -4.059039 -21.179294 -17.314624 2.031872 1.321996 -1.360942 8.327172 25.139321 -11.505501 11.447230 -5.463655 30.540015 -18.853033 -9.550167 -21.845853 3.312161 -13.163556 -18.074800 -3.439289 -8.893984 -17.968106 25.705896 5.747914 7.174424 -3.668834 -4.352008 -81.223398 -127.973339 13.441088 75.003041 33.310923 -13.906732 43.636008 -172.807135 38.033702 -153.333031 0.842612 -0.043481 5.352174 -90.323261 4.872828 -1.531382 -3.789413 1.971528 -25.005332 151.114333 43.683467 144.955129 -48.006801 17.164231 35.668069 -167.837868 -41.473943 -133.718581 -0.604648 -0.060860 -8.037901 89.574018 -8.282442 4.380423 -10.832911 -1.005990 0.773004 7.396834 0.357549 -29.454187 -179.744987 -6.033362 -16.323378 -36.117416 -38.667893 -83.656425 
0.065025 0.501714 0.068093 -178.571730 -16.713641 -18.458433 170.463760 -27.609226 7.254859 1.579273 9.679886 -58.270091 17.123080 -16.367396 48.870157 -4.675052 -21.122747 -16.117973 2.147594 1.121670 0.108700 7.998866 25.873858 -10.558370 11.584668 -5.598642 31.228528 -17.599483 -10.021436 -25.842279 2.333062 -12.468949 -14.135128 -3.893772 -7.282726 -15.864347 26.633804 6.502408 6.370137 -4.560405 -5.152945 -80.256765 -128.089469 12.300151 75.817191 33.928283 -14.446163 44.386832 -173.230514 38.106908 -151.594967 0.842612 -0.043481 5.352174 -90.323309 4.873826 -1.531395 -4.588946 1.182524 -24.039539 153.181777 45.130830 148.288263 -46.460754 16.169447 34.863661 -168.239406 -41.362087 -133.319025 -0.604648 -0.060860 -8.037901 89.574018 -8.282442 4.380423 -10.723974 -2.206963 0.798615 7.068812 0.754731 -27.794188 -179.795371 -6.040345 -15.456549 -36.325253 -38.486964 -83.354372 
0.071617 0.495784 0.049763 -178.607616 -14.827856 -17.975185 169.761395 -26.912042 5.589103 1.443603 9.656896 -59.278880 17.162058 -16.516497 49.256640 -5.337931 -20.867463 -14.238444 2.297736 0.943146 1.115186 7.376121 26.378533 -10.125375 11.935461 -5.958289 33.023234 -16.409588 -9.735021 -29.387681 1.514956 -12.156164 -11.334130 -4.344409 -5.521702 -13.599273 27.629826 7.355087 5.473319 -5.516896 -6.044934 -79.159632 -128.110052 11.008259 76.724151 34.352602 -14.824475 44.904580 -173.588670 38.302578 -150.056979 0.842612 -0.043481 5.352174 -90.323309 4.873826 -1.531395 -5.471485 0.324065 -22.944217 155.512350 46.588824 151.876964 -44.675807 15.052673 33.910232 -168.777470 -41.259698 -133.098205 -0.604649 -0.060860 -8.037901 89.574018 -8.282442 4.380423 -10.577735 -3.543887 0.796653 6.757909 1.193024 -25.993680 -179.924379 -6.051027 -13.213656 -36.799067 -38.069070 -82.622711 
0.078731 0.489883 0.031128 -178.622549 -12.800928 -17.479688 169.054873 -26.189540 3.710361 1.020383 9.907293 -60.742553 17.239286 -16.825065 50.055072 -5.650606 -21.044926 -11.334174 2.303697 0.946410 1.060706 6.513689 26.731048 -10.091575 12.440033 -6.517342 35.711251 -15.345675 -8.894631 -32.626631 0.820755 -12.096130 -9.342866 -4.763722 -3.598232 -11.170600 28.671717 8.281960 4.533738 -6.517813 -6.988847 -77.975426 -128.037708 9.533609 77.729970 34.665034 -15.107021 45.286724 -173.886824 38.625345 -148.552549 0.842610 -0.043481 5.352174 -90.323273 4.872827 -1.531415 -6.417842 -0.569006 -21.763144 158.301983 48.054677 155.993043 -42.520277 13.751070 32.725561 -169.448701 -41.133472 -133.087116 -0.602944 -0.056706 -8.059691 89.574781 -8.268468 4.379742 -10.413932 -4.962753 0.779843 6.454376 1.632242 -24.109621 179.903175 -6.043823 -9.885920 -37.489245 -37.429953 -81.628429 
0.086003 0.483999 0.012422 -178.625554 -10.727532 -16.992471 168.396827 -25.455997 1.725584 -0.236720 10.721217 -63.265290 17.496171 -18.025771 53.147742 -4.858527 -22.220559 -7.809984 1.985686 1.333521 -1.283972 5.495777 26.958965 -10.388961 13.019284 -7.229611 38.985191 -14.508659 -7.709914 -35.486121 0.281675 -12.179165 -8.016209 -5.116069 -1.606010 -8.695441 29.670180 9.191409 3.637436 -7.472901 -7.903113 -76.820785 -127.864911 7.911634 78.764305 34.907878 -15.328998 45.584306 -174.098224 39.073702 -147.017924 0.842606 -0.043481 5.352174 -90.323367 4.872823 -1.531388 -7.418399 -1.416435 -20.604799 160.571638 49.238893 159.267806 -41.342559 13.062300 32.063755 -169.829282 -41.201078 -132.154790 -0.659342 -0.193129 -7.348466 89.549954 -8.720635 4.400645 -10.260874 -6.338383 0.769886 6.163410 2.015656 -22.293340 179.711727 -6.012052 -5.875360 -38.210500 -36.734089 -80.534492 
0.093097 0.478196 -0.005968 -178.619179 -8.711222 -16.520806 167.815646 -24.732932 -0.236172 -2.399778 13.671930 -60.782867 17.838632 -22.801910 65.438669 0.204429 -21.945622 -19.687954 1.699144 1.131064 0.349633 4.417680 27.088439 -10.935070 13.594163 -8.027598 42.489900 -13.933363 -6.396817 -37.951292 -0.105471 -12.297323 -7.155008 -5.373568 0.336645 -6.313706 30.556112 10.003231 2.873307 -8.288336 -8.713581 -75.812737 -127.601770 6.203746 79.761558 35.125810 -15.529976 45.851779 -174.208621 39.626363 -145.402125 0.842598 -0.043481 5.352173 -90.323379 4.872823 -1.531422 -8.448288 -2.139762 -19.578060 161.183322 50.034113 160.180048 -42.471853 13.722435 32.698548 -169.546935 -41.670965 -129.247270 -0.832948 -0.593512 -5.301768 89.479844 -10.016372 4.455081 -10.147759 -7.544895 0.777137 5.900034 2.285962 -20.697032 179.473559 -5.988126 -1.640168 -38.905376 -36.031033 -79.465799 
0.099888 0.472215 -0.024559 -178.615516 -6.767127 -16.036719 167.317165 -24.006291 -2.135528 -4.991998 18.156071 -56.170149 16.661665 -28.653437 81.388965 7.294174 -18.838958 -29.241448 1.774305 1.223362 -0.500172 3.313283 27.154718 -11.684454 14.127344 -8.872033 46.048072 -13.552895 -5.088210 -40.174222 -0.397386 -12.373288 -6.457093 -5.531457 2.207249 -4.033008 31.287430 10.653777 2.294217 -8.938532 -9.379382 -75.000171 -127.229788 4.387724 80.690968 35.368060 -15.755365 46.149576 -174.194414 40.292900 -143.584500 0.842579 -0.043480 5.352173 -90.323273 4.872827 -1.531415 -9.444858 -2.697712 -18.756211 160.407194 50.560046 159.133617 -45.387126 15.493567 34.293271 -168.775230 -42.483852 -124.757949 -1.125019 -1.189016 -2.206045 89.371894 -11.971831 4.544502 -10.102604 -8.503831 0.822942 5.654592 2.414030 -19.386343 179.247396 -5.943891 2.531015 -39.472941 -35.431057 -78.538701 
